<svg xmlns="http://www.w3.org/2000/svg" version="1.1" xmlns:xlink="http://www.w3.org/1999/xlink" xmlns:svgjs="http://svgjs.dev/svgjs" width="1500" height="1500" viewBox="0 0 1500 1500"><rect width="1500" height="1500" fill="#000000"></rect><g transform="matrix(0.6666666666666666,0,0,0.6666666666666666,250.2882499268245,360.98191632928484)"><svg viewBox="0 0 317 247" data-background-color="#ffffff" preserveAspectRatio="xMidYMid meet" height="1168" width="1500" xmlns="http://www.w3.org/2000/svg" xmlns:xlink="http://www.w3.org/1999/xlink"><g id="tight-bounds" transform="matrix(1,0,0,1,-0.09137522680336474,-0.09999999999999432)"><svg viewBox="0 0 317.18275045360673 247.2" height="247.2" width="317.18275045360673"><g><svg viewBox="0 0 395.52000000000004 308.2530303434671" height="247.2" width="317.18275045360673"><g transform="matrix(1,0,0,1,0,237.78224477305875)"><svg viewBox="0 0 395.52000000000004 70.47078557040835" height="70.47078557040835" width="395.52000000000004"><g id="textblocktransform"><svg viewBox="0 0 395.52000000000004 70.47078557040835" height="70.47078557040835" width="395.52000000000004" id="textblock"><g><svg viewBox="0 0 395.52000000000004 70.47078557040835" height="70.47078557040835" width="395.52000000000004"><g transform="matrix(1,0,0,1,0,0)"><svg width="395.52000000000004" viewBox="0.25 -38.15 274.03 49.65" height="70.47078557040835" data-palette-color="#0074d9"><path d="M39.4 0L39.4 0Q37.8 0 36.33-0.9 34.85-1.8 33.95-3.75 33.05-5.7 33.05-8.75L33.05-8.75Q33.05-11.25 33.65-14.38 34.25-17.5 35.23-20.65 36.2-23.8 37.35-26.35L37.35-26.35Q33.9-24.05 31.3-20 28.7-15.95 26.8-10.6L26.8-10.6Q27.2-9 27.45-7.6 27.7-6.2 27.7-5.05L27.7-5.05Q27.7-2.85 26.65-1.6 25.6-0.35 23-0.35L23-0.35Q20.7-0.35 19.63-1.38 18.55-2.4 18.55-4.25L18.55-4.25Q18.55-5.45 18.98-7 19.4-8.55 20.2-10.35L20.2-10.35Q19.3-13 18-16.32 16.7-19.65 14.35-23.6L14.35-23.6Q13.65-20.65 12.93-17.73 12.2-14.8 11.73-12.33 11.25-9.85 11.25-8.15L11.25-8.15Q11.25-5.4 12.75-5.4L12.75-5.4 12.85-5.3Q12.85-3.65 12.03-2.48 11.2-1.3 9.93-0.68 8.65-0.05 7.25-0.05L7.25-0.05Q5.9-0.05 4.63-0.7 3.35-1.35 2.55-2.73 1.75-4.1 1.75-6.25L1.75-6.25Q1.75-8.3 2.48-10.73 3.2-13.15 4.3-15.68 5.4-18.2 6.55-20.63 7.7-23.05 8.63-25.18 9.55-27.3 9.85-28.9L9.85-28.9Q8.85-29.6 7.7-29.6L7.7-29.6Q6.75-29.6 5.78-28.98 4.8-28.35 3.95-26.9L3.95-26.9 3.6-27.05Q3.65-29.6 4.7-31.73 5.75-33.85 7.48-35.13 9.2-36.4 11.25-36.4L11.25-36.4Q13.6-36.4 16.1-34.35 18.6-32.3 20.73-27.6 22.85-22.9 24.15-14.9L24.15-14.9Q26.05-21.05 28.25-25.2 30.45-29.35 32.77-31.8 35.1-34.25 37.38-35.33 39.65-36.4 41.7-36.4L41.7-36.4Q44.25-36.4 46.28-35.15 48.3-33.9 49.48-32 50.65-30.1 50.65-28.2L50.65-28.2Q49.4-28.55 48.18-28.7 46.95-28.85 45.8-28.85L45.8-28.85Q44.65-28.85 43.6-28.7L43.6-28.7Q43.15-26.4 42.65-23.58 42.15-20.75 41.78-17.9 41.4-15.05 41.4-12.65L41.4-12.65Q41.4-10.2 41.9-8.65 42.4-7.1 43.65-7.1L43.65-7.1Q44.45-7.1 45.28-7.8 46.1-8.5 46.5-9.95L46.5-9.95 46.85-9.8Q46.85-6.5 45.75-4.33 44.65-2.15 42.93-1.07 41.2 0 39.4 0ZM61.65 10L61.65 10Q59.15 10 57.62 8.47 56.1 6.95 56.1 4.35L56.1 4.35Q56.1 3 56.57 1.38 57.05-0.25 58.15-2.05L58.15-2.05Q55.7-2.2 54.12-3.7 52.55-5.2 52.55-8.25L52.55-8.25Q52.55-10.05 53.02-12.13 53.5-14.2 53.95-16.03 54.4-17.85 54.4-18.85L54.4-18.85Q54.4-19.6 54.1-19.93 53.8-20.25 53.4-20.25L53.4-20.25Q53-20.25 52.52-19.93 52.05-19.6 51.8-18.95L51.8-18.95 50.95-19.85Q51.25-21.4 52.25-22.6 53.25-23.8 54.7-24.5 56.15-25.2 57.7-25.2L57.7-25.2Q59.45-25.2 60.75-24.08 62.05-22.95 62.05-20L62.05-20Q62.05-18.15 61.6-16.03 61.15-13.9 60.7-12.03 60.25-10.15 60.25-9.05L60.25-9.05Q60.25-8.05 60.67-7.58 61.1-7.1 61.65-7.1L61.65-7.1Q62.35-7.1 63.25-7.88 64.15-8.65 64.95-10.45 65.75-12.25 66-15.3L66-15.3Q66.1-16.25 66.15-17.73 66.2-19.2 66.25-20.48 66.3-21.75 66.3-22.05L66.3-22.05Q66.3-23.85 67.62-24.58 68.95-25.3 70.55-25.3L70.55-25.3Q71.95-25.3 73.2-24.75 74.45-24.2 74.9-22.9L74.9-22.9 75-22.6Q74.55-22.2 74.22-19.9 73.9-17.6 73.45-13.75L73.45-13.75Q73.15-11.25 72.7-8.1 72.25-4.95 71.47-1.78 70.7 1.4 69.42 4.08 68.15 6.75 66.25 8.38 64.35 10 61.65 10ZM60.45 4.25L60.45 4.25Q62 4.25 63.22 1.43 64.45-1.4 65.15-6.6L65.15-6.6Q61.95-2.5 60.75-0.15 59.55 2.2 59.55 3.25L59.55 3.25Q59.55 4.25 60.45 4.25ZM81.95 0.2L81.95 0.2Q80.25 0.2 78.9-1.07 77.55-2.35 77.55-5.4L77.55-5.4Q77.55-7.4 78.12-9.85 78.7-12.3 79.52-14.93 80.34-17.55 81.2-20 82.05-22.45 82.59-24.45 83.15-26.45 83.15-27.6L83.15-27.6Q83.15-28.95 82.09-28.95L82.09-28.95Q80.84-28.95 79.75-27.53 78.65-26.1 77.3-23.55L77.3-23.55 77-23.65Q77-27.6 79.09-30.53 81.2-33.45 84.77-35.05 88.34-36.65 92.75-36.65L92.75-36.65Q97.2-36.65 99.97-35.13 102.75-33.6 104.07-31.18 105.4-28.75 105.4-26L105.4-26Q105.4-23.65 104.52-21.33 103.65-19 102.02-17.1 100.4-15.2 98.2-14.05 96-12.9 93.34-12.9L93.34-12.9Q90.59-12.9 87.65-14.3L87.65-14.3Q87-11.85 86.5-9.33 86-6.8 86-4.15L86-4.15Q86-2.85 86.15-1.55L86.15-1.55Q85.3-0.7 84.17-0.25 83.05 0.2 81.95 0.2ZM89.95-17.9L89.95-17.9Q91.95-17.9 93.45-19.03 94.95-20.15 95.77-21.88 96.59-23.6 96.59-25.35L96.59-25.35Q96.59-27.4 95.27-29 93.95-30.6 90.95-30.6L90.95-30.6Q90.55-30.6 90.02-30.55 89.5-30.5 88.95-30.4L88.95-30.4Q89.34-29.15 89.47-27.93 89.59-26.7 89.59-25.55L89.59-25.55Q89.59-23.55 89.3-21.7 89-19.85 88.59-18.05L88.59-18.05Q89.3-17.9 89.95-17.9ZM118.89 0.35L118.89 0.35Q115.24 0.35 112.84-1.13 110.44-2.6 109.24-5.03 108.04-7.45 108.04-10.25L108.04-10.25Q108.04-12.9 109.07-15.58 110.09-18.25 112.07-20.45 114.04-22.65 116.87-24 119.69-25.35 123.24-25.35L123.24-25.35Q127.64-25.35 129.67-23.38 131.69-21.4 131.69-18.6L131.69-18.6Q131.69-16.2 130.42-14.18 129.14-12.15 127.04-10.93 124.94-9.7 122.44-9.7L122.44-9.7Q121.14-9.7 119.79-10.1 118.44-10.5 117.14-11.35L117.14-11.35Q117.39-8.25 118.94-6.85 120.49-5.45 122.64-5.45L122.64-5.45Q124.14-5.45 125.64-6.03 127.14-6.6 128.42-7.53 129.69-8.45 130.39-9.5L130.39-9.5 130.74-9.25Q130.74-6.65 129.67-4.83 128.59-3 126.84-1.85 125.09-0.7 123.02-0.18 120.94 0.35 118.89 0.35ZM120.04-13.15L120.04-13.15Q121.64-13.15 122.64-14.08 123.64-15 124.14-16.25 124.64-17.5 124.64-18.45L124.64-18.45Q124.64-19.6 123.99-20.38 123.34-21.15 122.19-21.15L122.19-21.15Q121.29-21.15 120.22-20.5 119.14-19.85 118.29-18.28 117.44-16.7 117.19-13.9L117.19-13.9Q118.79-13.15 120.04-13.15ZM144.94 0.35L144.94 0.35Q141.29 0.35 138.89-1.13 136.49-2.6 135.29-5.03 134.09-7.45 134.09-10.25L134.09-10.25Q134.09-12.9 135.12-15.58 136.14-18.25 138.12-20.45 140.09-22.65 142.92-24 145.74-25.35 149.29-25.35L149.29-25.35Q153.69-25.35 155.72-23.38 157.74-21.4 157.74-18.6L157.74-18.6Q157.74-16.2 156.47-14.18 155.19-12.15 153.09-10.93 150.99-9.7 148.49-9.7L148.49-9.7Q147.19-9.7 145.84-10.1 144.49-10.5 143.19-11.35L143.19-11.35Q143.44-8.25 144.99-6.85 146.54-5.45 148.69-5.45L148.69-5.45Q150.19-5.45 151.69-6.03 153.19-6.6 154.47-7.53 155.74-8.45 156.44-9.5L156.44-9.5 156.79-9.25Q156.79-6.65 155.72-4.83 154.64-3 152.89-1.85 151.14-0.7 149.07-0.18 146.99 0.35 144.94 0.35ZM146.09-13.15L146.09-13.15Q147.69-13.15 148.69-14.08 149.69-15 150.19-16.25 150.69-17.5 150.69-18.45L150.69-18.45Q150.69-19.6 150.04-20.38 149.39-21.15 148.24-21.15L148.24-21.15Q147.34-21.15 146.27-20.5 145.19-19.85 144.34-18.28 143.49-16.7 143.24-13.9L143.24-13.9Q144.84-13.15 146.09-13.15ZM164.84 10L164.84 10Q163.59 10 162.46 9.35 161.34 8.7 160.61 7.25 159.89 5.8 159.89 3.35L159.89 3.35Q159.89 1 160.51-1.75 161.14-4.5 161.94-7.28 162.74-10.05 163.36-12.55 163.99-15.05 163.99-17L163.99-17Q163.99-18.45 163.59-18.98 163.19-19.5 162.64-19.5L162.64-19.5Q162.14-19.5 161.64-19.2 161.14-18.9 160.79-18.5L160.79-18.5 160.44-18.7Q160.44-20.45 161.46-21.93 162.49-23.4 164.09-24.3 165.69-25.2 167.39-25.2L167.39-25.2Q169.04-25.2 170.04-24.38 171.04-23.55 171.56-22.25 172.09-20.95 172.19-19.45L172.19-19.45Q174.09-22.45 176.34-23.9 178.59-25.35 180.59-25.35L180.59-25.35Q183.29-25.35 185.16-22.8 187.04-20.25 187.04-14.9L187.04-14.9Q187.04-9.9 185.44-6.53 183.84-3.15 181.41-1.48 178.99 0.2 176.49 0.2L176.49 0.2Q174.34 0.2 172.51-1.07 170.69-2.35 169.69-4.8L169.69-4.8Q169.24-2.75 168.91-0.75 168.59 1.25 168.59 3.15L168.59 3.15Q168.59 4.2 168.71 5.2 168.84 6.2 169.14 7.2L169.14 7.2 169.14 7.5Q168.49 8.75 167.31 9.38 166.14 10 164.84 10ZM174.04-4.65L174.04-4.65Q175.24-4.65 176.14-5.6 177.04-6.55 177.69-8.08 178.34-9.6 178.66-11.35 178.99-13.1 178.99-14.75L178.99-14.75Q178.99-16.85 178.44-18.32 177.89-19.8 176.74-19.8L176.74-19.8Q175.29-19.8 173.49-16.88 171.69-13.95 170.69-8L170.69-8Q171.14-6.45 172.04-5.55 172.94-4.65 174.04-4.65ZM198.29 0.45L198.29 0.45Q195.19 0.45 193.14-0.4 191.09-1.25 190.09-2.58 189.09-3.9 189.09-5.25L189.09-5.25Q189.09-7.15 190.79-8.63 192.49-10.1 195.39-10.1L195.39-10.1Q195.39-7.55 196.04-6.03 196.69-4.5 197.71-3.85 198.74-3.2 199.69-3.2L199.69-3.2Q200.84-3.2 201.61-3.88 202.39-4.55 202.39-5.55L202.39-5.55Q202.39-6.95 200.94-8 199.49-9.05 197.19-10.35L197.19-10.35Q196.04-11.05 194.69-11.98 193.34-12.9 192.39-14.23 191.44-15.55 191.44-17.4L191.44-17.4Q191.44-19.35 192.56-20.85 193.69-22.35 195.54-23.38 197.39-24.4 199.54-24.93 201.69-25.45 203.74-25.45L203.74-25.45Q207.59-25.45 209.54-23.9 211.49-22.35 211.49-20.6L211.49-20.6Q211.49-19.1 209.99-17.9 208.49-16.7 205.39-16.7L205.39-16.7Q205.44-19.25 204.34-20.43 203.24-21.6 201.99-21.6L201.99-21.6Q201.09-21.6 200.49-21.05 199.89-20.5 199.89-19.45L199.89-19.45Q199.89-18.25 200.66-17.38 201.44-16.5 202.61-15.83 203.79-15.15 205.04-14.55L205.04-14.55Q206.74-13.75 208.24-12.85 209.74-11.95 210.69-10.8 211.64-9.65 211.64-8L211.64-8Q211.64-5.75 209.81-3.83 207.99-1.9 204.94-0.73 201.89 0.45 198.29 0.45ZM218.08 0.3L218.08 0.3Q216.03 0.3 214.68-1 213.33-2.3 213.33-4.2L213.33-4.2Q213.33-6.35 214.91-7.88 216.48-9.4 218.78-9.4L218.78-9.4Q220.83-9.4 222.21-8.1 223.58-6.8 223.58-4.9L223.58-4.9Q223.58-2.75 221.98-1.23 220.38 0.3 218.08 0.3ZM229.43 0.2L229.43 0.2Q227.88 0.2 226.68-0.55 225.48-1.3 225.48-3.05L225.48-3.05Q225.48-5.8 226.66-8.65 227.83-11.5 229.56-14.28 231.28-17.05 233.01-19.7 234.73-22.35 235.91-24.75 237.08-27.15 237.08-29.2L237.08-29.2Q237.08-30.85 236.28-30.85L236.28-30.85Q235.73-30.85 235.03-29.98 234.33-29.1 234.03-27.4L234.03-27.4 233.48-27.5Q233.48-30.35 234.83-32.33 236.18-34.3 238.28-35.3 240.38-36.3 242.58-36.3L242.58-36.3Q245.13-36.3 247.36-34.85 249.58-33.4 250.43-30.25L250.43-30.25Q250.78-29 250.96-27.45 251.13-25.9 251.18-24.78 251.23-23.65 251.23-23.65L251.23-23.65Q251.33-19.6 251.41-16.8 251.48-14 251.68-12.1 251.88-10.2 252.23-8.9L252.23-8.9Q252.58-7.65 253.16-6.88 253.73-6.1 254.63-6.1L254.63-6.1Q255.48-6.1 256.11-6.6 256.73-7.1 256.93-7.55L256.93-7.55 257.28-7.3Q257.28-5 256.38-3.3 255.48-1.6 254.03-0.7 252.58 0.2 250.98 0.2L250.98 0.2Q249.43 0.2 247.96-0.73 246.48-1.65 245.38-3.6 244.28-5.55 243.93-8.65L243.93-8.65Q242.38-8.75 240.91-8.83 239.43-8.9 238.23-8.9L238.23-8.9Q237.43-8.9 236.71-8.88 235.98-8.85 235.28-8.8L235.28-8.8Q234.83-7.25 234.56-5.68 234.28-4.1 234.28-2.6L234.28-2.6Q234.28-1.45 232.78-0.63 231.28 0.2 229.43 0.2ZM236.93-13.45L236.93-13.45Q238.18-13.8 239.58-13.93 240.98-14.05 242.58-14.05L242.58-14.05 243.68-14.05Q243.58-17.75 243.41-21.65 243.23-25.55 242.13-28.9L242.13-28.9Q241.73-25.3 240.13-21.35 238.53-17.4 236.93-13.45ZM263.33 0.25L263.33 0.25Q261.93 0.25 260.85-0.93 259.78-2.1 259.78-5.3L259.78-5.3Q259.78-5.85 259.8-6.28 259.83-6.7 259.83-6.9L259.83-6.9Q260.03-8.9 260.4-11.88 260.78-14.85 261.28-18.13 261.78-21.4 262.3-24.45 262.83-27.5 263.28-29.78 263.73-32.05 264.03-32.9L264.03-32.9Q264.58-34.4 266-35.27 267.43-36.15 268.93-36.15L268.93-36.15Q270.23-36.15 271.3-35.4 272.38-34.65 272.78-32.85L272.78-32.85Q272.48-31.85 271.83-29.33 271.18-26.8 270.43-23.15 269.68-19.5 269-15.1 268.33-10.7 267.93-5.9L267.93-5.9Q267.88-5.05 267.78-3.93 267.68-2.8 267.63-1.65L267.63-1.65Q267.03-1 265.83-0.38 264.63 0.25 263.33 0.25Z" opacity="1" transform="matrix(1,0,0,1,0,0)" fill="#ffffff" class="wordmark-text-0" data-fill-palette-color="primary" id="text-0"></path></svg></g></svg></g></svg></g></svg></g><g transform="matrix(1,0,0,1,36.43530239999998,0)"><svg viewBox="0 0 322.6493952000001 221.829708004672" height="221.829708004672" width="322.6493952000001"><g><svg xmlns="http://www.w3.org/2000/svg" xmlns:xlink="http://www.w3.org/1999/xlink" version="1.1" x="0" y="0" viewBox="2.0005889894740436 14.999 95.71482202105192 65.80638716984984" enable-background="new 0 0 100 100" xml:space="preserve" height="221.829708004672" width="322.6493952000001" class="icon-icon-0" data-fill-palette-color="accent" id="icon-0"><g fill="#000000" data-fill-palette-color="accent"><g fill="#000000" data-fill-palette-color="accent"><g fill="#000000" data-fill-palette-color="accent"><g fill="#000000" data-fill-palette-color="accent"><g fill="#000000" data-fill-palette-color="accent"><g fill="#000000" data-fill-palette-color="accent"><path fill="#ffffff" d="M42.966 51.018H43.572C43.404 50.878 43.242 50.75 43.096 50.596 38.29 46.255 34.623 37.818 34.623 30.997 34.623 21.347 42.523 14.999 49.994 14.999 57.459 14.999 64.962 21.866 64.962 31.512 64.962 38.33 60.906 46.511 55.888 50.703 56.919 54.636 62.566 55.923 74.212 59.117 87.151 62.669 85.791 74.822 84.885 77.362 83.388 81.557 16.311 82.333 15.046 77.362 14.765 75.305 11.8 62.669 24.741 59.117 36.067 56.008 41.709 54.703 42.966 51.018" data-fill-palette-color="accent"></path><path fill="#ffffff" d="M43.572 51.018H42.966C43.016 50.878 43.054 50.743 43.095 50.596 43.24 50.75 43.405 50.879 43.572 51.018" data-fill-palette-color="accent"></path></g></g></g></g><path fill="#ffffff" d="M24.331 57.623L26.495 57.031C30.601 55.91 33.852 55.016 36.291 54.128 34.378 53.281 33.284 52.348 32.929 50.996 34.572 49.623 36.058 47.665 37.231 45.484 34.718 41.032 33.074 35.666 33.074 30.998 33.074 29.289 33.363 27.558 33.888 25.88 32.232 24.856 30.376 24.278 28.519 24.278 22.928 24.278 17.016 29.028 17.016 36.25 17.016 41.354 19.76 47.668 23.356 50.917 23.465 51.032 23.587 51.128 23.712 51.233H23.258C22.318 53.991 18.096 54.967 9.62 57.294-0.064 59.952 2.155 69.408 2.365 70.947 2.637 72.016 6.987 72.728 13.062 73.128 12.811 63.074 18.851 59.126 24.331 57.623" data-fill-palette-color="accent"></path><path fill="#ffffff" d="M75.385 57.623L73.221 57.031C69.115 55.91 65.864 55.016 63.425 54.128 65.338 53.281 66.432 52.348 66.787 50.996 65.144 49.623 63.658 47.665 62.485 45.484 64.998 41.032 66.642 35.666 66.642 30.998 66.642 29.289 66.353 27.558 65.828 25.88 67.484 24.856 69.34 24.278 71.197 24.278 76.788 24.278 82.7 29.028 82.7 36.25 82.7 41.354 79.956 47.668 76.36 50.917 76.251 51.032 76.129 51.128 76.004 51.233H76.458C77.398 53.991 81.62 54.967 90.096 57.294 99.78 59.952 97.561 69.408 97.351 70.947 97.079 72.016 92.729 72.728 86.654 73.128 86.905 63.074 80.864 59.126 75.385 57.623" data-fill-palette-color="accent"></path></g></g></svg></g></svg></g><g></g></svg></g><defs></defs></svg><rect width="317.18275045360673" height="247.2" fill="none" stroke="none" visibility="hidden"></rect></g></svg></g></svg>